<mxfile host="Electron" agent="Mozilla/5.0 (Windows NT 10.0; Win64; x64) AppleWebKit/537.36 (KHTML, like Gecko) draw.io/24.7.17 Chrome/128.0.6613.36 Electron/32.0.1 Safari/537.36" version="24.7.17">
  <diagram name="Page-1" id="MBA3mqEUf8yBM4hLEcPy">
    <mxGraphModel dx="550" dy="875" grid="1" gridSize="10" guides="1" tooltips="1" connect="1" arrows="1" fold="1" page="1" pageScale="1" pageWidth="850" pageHeight="1100" math="0" shadow="0">
      <root>
        <mxCell id="0" />
        <mxCell id="1" parent="0" />
        <mxCell id="eASxWb46A3ll9oQE5JGt-4" style="edgeStyle=orthogonalEdgeStyle;rounded=0;orthogonalLoop=1;jettySize=auto;html=1;entryX=0.5;entryY=0;entryDx=0;entryDy=0;" edge="1" parent="1" source="eASxWb46A3ll9oQE5JGt-2" target="eASxWb46A3ll9oQE5JGt-3">
          <mxGeometry relative="1" as="geometry" />
        </mxCell>
        <mxCell id="eASxWb46A3ll9oQE5JGt-2" value="Initiate generateAndSendGCode" style="rounded=1;whiteSpace=wrap;html=1;arcSize=50;" vertex="1" parent="1">
          <mxGeometry x="40" y="40" width="165" height="80" as="geometry" />
        </mxCell>
        <mxCell id="eASxWb46A3ll9oQE5JGt-6" style="edgeStyle=orthogonalEdgeStyle;rounded=0;orthogonalLoop=1;jettySize=auto;html=1;entryX=0.5;entryY=0;entryDx=0;entryDy=0;" edge="1" parent="1" source="eASxWb46A3ll9oQE5JGt-3" target="eASxWb46A3ll9oQE5JGt-5">
          <mxGeometry relative="1" as="geometry" />
        </mxCell>
        <mxCell id="eASxWb46A3ll9oQE5JGt-12" style="edgeStyle=orthogonalEdgeStyle;rounded=0;orthogonalLoop=1;jettySize=auto;html=1;entryX=1;entryY=0.5;entryDx=0;entryDy=0;" edge="1" parent="1" source="eASxWb46A3ll9oQE5JGt-3" target="eASxWb46A3ll9oQE5JGt-10">
          <mxGeometry relative="1" as="geometry">
            <Array as="points">
              <mxPoint x="320" y="220" />
              <mxPoint x="320" y="600" />
            </Array>
          </mxGeometry>
        </mxCell>
        <mxCell id="eASxWb46A3ll9oQE5JGt-3" value="Pen state changed&lt;div&gt;from previous state?&lt;/div&gt;" style="rhombus;whiteSpace=wrap;html=1;" vertex="1" parent="1">
          <mxGeometry x="42.5" y="160" width="160" height="120" as="geometry" />
        </mxCell>
        <mxCell id="eASxWb46A3ll9oQE5JGt-9" style="edgeStyle=orthogonalEdgeStyle;rounded=0;orthogonalLoop=1;jettySize=auto;html=1;entryX=0.5;entryY=0;entryDx=0;entryDy=0;" edge="1" parent="1" source="eASxWb46A3ll9oQE5JGt-5" target="eASxWb46A3ll9oQE5JGt-8">
          <mxGeometry relative="1" as="geometry" />
        </mxCell>
        <mxCell id="eASxWb46A3ll9oQE5JGt-5" value="Generate G-code command for pen states" style="rounded=0;whiteSpace=wrap;html=1;" vertex="1" parent="1">
          <mxGeometry x="40" y="320" width="165" height="80" as="geometry" />
        </mxCell>
        <mxCell id="eASxWb46A3ll9oQE5JGt-7" value="Yes" style="text;html=1;align=center;verticalAlign=middle;resizable=0;points=[];autosize=1;strokeColor=none;fillColor=none;" vertex="1" parent="1">
          <mxGeometry x="120" y="280" width="40" height="30" as="geometry" />
        </mxCell>
        <mxCell id="eASxWb46A3ll9oQE5JGt-11" style="edgeStyle=orthogonalEdgeStyle;rounded=0;orthogonalLoop=1;jettySize=auto;html=1;entryX=0.5;entryY=0;entryDx=0;entryDy=0;" edge="1" parent="1" source="eASxWb46A3ll9oQE5JGt-8" target="eASxWb46A3ll9oQE5JGt-10">
          <mxGeometry relative="1" as="geometry" />
        </mxCell>
        <mxCell id="eASxWb46A3ll9oQE5JGt-8" value="Call SendCommands() function with G-code for the pen state" style="rounded=0;whiteSpace=wrap;html=1;" vertex="1" parent="1">
          <mxGeometry x="40" y="440" width="165" height="80" as="geometry" />
        </mxCell>
        <mxCell id="eASxWb46A3ll9oQE5JGt-15" style="edgeStyle=orthogonalEdgeStyle;rounded=0;orthogonalLoop=1;jettySize=auto;html=1;entryX=0.5;entryY=0;entryDx=0;entryDy=0;" edge="1" parent="1" source="eASxWb46A3ll9oQE5JGt-10" target="eASxWb46A3ll9oQE5JGt-14">
          <mxGeometry relative="1" as="geometry" />
        </mxCell>
        <mxCell id="eASxWb46A3ll9oQE5JGt-10" value="Update previous pen state to current pen state" style="rounded=0;whiteSpace=wrap;html=1;" vertex="1" parent="1">
          <mxGeometry x="40" y="560" width="165" height="80" as="geometry" />
        </mxCell>
        <mxCell id="eASxWb46A3ll9oQE5JGt-13" value="No" style="text;html=1;align=center;verticalAlign=middle;resizable=0;points=[];autosize=1;strokeColor=none;fillColor=none;" vertex="1" parent="1">
          <mxGeometry x="320" y="390" width="40" height="30" as="geometry" />
        </mxCell>
        <mxCell id="eASxWb46A3ll9oQE5JGt-17" style="edgeStyle=orthogonalEdgeStyle;rounded=0;orthogonalLoop=1;jettySize=auto;html=1;entryX=0.5;entryY=0;entryDx=0;entryDy=0;" edge="1" parent="1" source="eASxWb46A3ll9oQE5JGt-14" target="eASxWb46A3ll9oQE5JGt-16">
          <mxGeometry relative="1" as="geometry" />
        </mxCell>
        <mxCell id="eASxWb46A3ll9oQE5JGt-14" value="Generate G-code commands for movement" style="rounded=0;whiteSpace=wrap;html=1;" vertex="1" parent="1">
          <mxGeometry x="40" y="680" width="165" height="80" as="geometry" />
        </mxCell>
        <mxCell id="eASxWb46A3ll9oQE5JGt-19" style="edgeStyle=orthogonalEdgeStyle;rounded=0;orthogonalLoop=1;jettySize=auto;html=1;entryX=0.5;entryY=0;entryDx=0;entryDy=0;" edge="1" parent="1" source="eASxWb46A3ll9oQE5JGt-16" target="eASxWb46A3ll9oQE5JGt-18">
          <mxGeometry relative="1" as="geometry" />
        </mxCell>
        <mxCell id="eASxWb46A3ll9oQE5JGt-16" value="Call SendCommands() function with the movement G-code" style="rounded=0;whiteSpace=wrap;html=1;" vertex="1" parent="1">
          <mxGeometry x="40" y="800" width="165" height="80" as="geometry" />
        </mxCell>
        <mxCell id="eASxWb46A3ll9oQE5JGt-18" value="End the function" style="rounded=1;whiteSpace=wrap;html=1;arcSize=50;" vertex="1" parent="1">
          <mxGeometry x="40" y="920" width="165" height="80" as="geometry" />
        </mxCell>
      </root>
    </mxGraphModel>
  </diagram>
</mxfile>
